PathFileType	4	(X/Y/Z)	C:/Users/opensim2020/Desktop/walking_exp_matlab/subject02_walking15_straight_04.trc	
DataRate	CameraRate	NumFrames	NumMarkers	Units	OrigDataRate	OrigDataStartFrame	OrigNumFrames	
100.00	100.00	7	42	mm	100.00	1812	152	
Frame#	Time	LFHD			RFHD			LBHD			RBHD			C7			T10			CLAV			STRN			RBAK			LSHO			LUPA			LELB			LFRM			LWRA			LWRB			LFIN			RSHO			RUPA			RELB			RFRM			RWRA			RWRB			RFIN			LASI			RASI			LPSI			RPSI			LTHI			LKNE			LTIB			LANK			LHEE			LTOE			RTHI			RKNE			RTIB			RANK			RHEE			RTOE			*39			*40			*41			
		X1	Y1	Z1	X2	Y2	Z2	X3	Y3	Z3	X4	Y4	Z4	X5	Y5	Z5	X6	Y6	Z6	X7	Y7	Z7	X8	Y8	Z8	X9	Y9	Z9	X10	Y10	Z10	X11	Y11	Z11	X12	Y12	Z12	X13	Y13	Z13	X14	Y14	Z14	X15	Y15	Z15	X16	Y16	Z16	X17	Y17	Z17	X18	Y18	Z18	X19	Y19	Z19	X20	Y20	Z20	X21	Y21	Z21	X22	Y22	Z22	X23	Y23	Z23	X24	Y24	Z24	X25	Y25	Z25	X26	Y26	Z26	X27	Y27	Z27	X28	Y28	Z28	X29	Y29	Z29	X30	Y30	Z30	X31	Y31	Z31	X32	Y32	Z32	X33	Y33	Z33	X34	Y34	Z34	X35	Y35	Z35	X36	Y36	Z36	X37	Y37	Z37	X38	Y38	Z38	X39	Y39	Z39	X40	Y40	Z40	X41	Y41	Z41	X42	Y42	Z42	

134	1.330	-915.02576	-710.38843	1742.58069	-1058.28687	-716.69159	1732.10254	-917.42572	-581.81213	1664.94165	-1059.95313	-575.84753	1652.64587	-995.29980	-534.86530	1523.29712	-1009.12323	-500.61816	1245.22546	-982.63525	-677.10980	1464.13892	-995.53143	-741.36383	1296.62366	-1063.57751	-487.70081	1346.67615	-815.03778	-599.79156	1497.74182	-730.39404	-606.85327	1298.61389	-712.98358	-618.74139	1157.71497	-700.23053	-658.14697	1030.67529	-728.53735	-743.39856	922.91022	-698.60510	-696.33795	914.18152	-690.24384	-730.54517	858.83698	-1178.96619	-613.42065	1499.42883	-1272.05957	-588.77063	1312.96606	-1298.04871	-608.98370	1167.03503	-1311.83289	-651.64752	1052.18445	-1281.54956	-708.03729	929.43054	-1323.95032	-670.03052	923.21887	-1311.67432	-706.21613	858.60931	-873.32141	-730.17743	992.93390	-1124.11072	-742.53583	987.59528	-961.01123	-525.14508	1035.20081	-1076.85413	-526.94116	1034.55481	-835.58435	-669.50940	672.55933	-876.47601	-641.32349	472.60260	-886.27545	-571.44415	289.39682	-931.87018	-558.65430	68.69053	-986.37482	-524.11572	42.19450	-909.28033	-712.55579	30.47282	-1213.33057	-734.19427	683.64709	-1199.20056	-790.00989	492.26013	-1206.36243	-681.84778	342.96335	-1179.18884	-587.83539	174.48024	-1119.51428	-541.75525	133.27002	-1209.69128	-695.33948	59.44773	-1004.92822	-610.25696	1810.32690	-3356.87256	2846.08301	1034.25415			 
135	1.340	-913.80151	-723.79150	1742.16382	-1056.95386	-729.76691	1731.29663	-915.97284	-594.54626	1664.80359	-1058.44067	-588.69519	1652.09302	-994.00140	-547.54541	1522.98547	-1007.59863	-512.69824	1245.08423	-980.77319	-689.63867	1463.69946	-992.90515	-753.55286	1295.97998	-1061.50879	-500.57120	1346.58875	-813.56836	-612.17267	1497.85510	-728.14374	-622.19116	1299.34729	-710.35498	-637.88824	1158.50061	-698.77441	-682.61151	1032.93005	-728.25470	-772.68634	929.67743	-698.38495	-725.78241	918.37262	-690.78534	-762.93182	864.61646	-1177.40210	-627.22577	1498.32349	-1270.06982	-601.19580	1311.87549	-1295.64075	-618.78900	1165.92322	-1309.32654	-656.95245	1049.53516	-1279.78308	-707.70105	923.92493	-1322.87292	-670.07263	919.88379	-1310.38525	-702.24963	853.18402	-869.34210	-739.95972	991.59998	-1119.78967	-755.92242	987.28674	-960.56915	-536.52112	1034.74316	-1076.47278	-539.36469	1034.52441	-834.59052	-675.96777	671.67334	-875.88086	-645.24310	472.01212	-885.81818	-573.94098	289.25342	-932.06366	-559.08862	68.79221	-986.49506	-524.55139	42.31261	-909.31287	-712.65509	30.38679	-1211.32153	-751.37543	685.04828	-1195.40308	-809.94720	493.38812	-1204.01062	-709.89240	337.56323	-1177.23560	-625.39105	163.66466	-1118.41125	-581.06854	119.78646	-1205.76660	-740.78333	55.69188	-1003.89038	-623.48798	1810.07227	-3357.02222	2846.18042	1034.22607			 
136	1.350	-912.32867	-736.34845	1741.25781	-1055.50134	-742.84888	1730.22986	-914.79126	-607.18414	1664.55115	-1057.12439	-601.51062	1651.21680	-992.73016	-560.32892	1522.41528	-1006.10529	-524.85931	1244.61865	-979.03040	-702.17462	1462.90906	-990.32532	-765.80597	1294.97949	-1061.06494	-512.76257	1346.32996	-812.07660	-624.68268	1497.64148	-726.02362	-638.30347	1299.71948	-707.56439	-655.99670	1158.96509	-697.23547	-706.46423	1035.11072	-728.11432	-801.72083	936.88641	-698.66132	-755.31293	922.72791	-691.39252	-794.76324	870.99805	-1175.83594	-640.90979	1497.01563	-1268.28027	-613.40155	1310.58447	-1292.46338	-628.52167	1164.17798	-1307.40845	-662.57898	1046.94189	-1278.21057	-707.60706	918.88867	-1322.12439	-670.48016	917.18250	-1309.44214	-698.81439	848.46436	-865.44739	-749.89673	989.97412	-1115.85388	-769.89478	986.87408	-960.27136	-547.89124	1034.03284	-1076.16626	-551.86200	1034.22412	-833.51080	-682.52893	670.62146	-875.03564	-649.03076	471.29010	-885.31610	-576.49738	289.13644	-932.25110	-559.34045	68.89545	-986.52606	-524.63470	42.55753	-909.19354	-712.68964	30.33704	-1209.17773	-768.19891	686.12091	-1191.88892	-829.01819	493.74130	-1201.63196	-738.08557	331.71964	-1175.72412	-664.06433	152.85458	-1117.20972	-621.97668	106.39510	-1202.10828	-786.81342	52.55277	-1002.83551	-636.92285	1809.39099	-3360.40405	2845.26929	1034.35278			 
137	1.360	-911.04797	-749.61676	1740.24036	-1054.10803	-755.96649	1728.91736	-913.34253	-620.12836	1663.55005	-1055.77307	-614.54077	1650.36780	-991.48029	-573.15259	1521.62781	-1004.79883	-537.05011	1243.81299	-977.23572	-714.75024	1461.87134	-987.72290	-778.07562	1293.63281	-1059.08301	-525.75250	1345.33752	-810.57196	-637.26898	1497.05188	-723.63953	-652.68640	1300.22595	-704.76508	-674.25757	1159.30859	-696.06818	-730.27142	1037.67810	-728.07855	-829.53394	944.30487	-698.76282	-783.98853	927.59448	-692.20770	-825.64014	877.50720	-1174.46375	-654.88043	1495.29822	-1266.77185	-625.26569	1309.13550	-1290.08948	-638.12152	1162.60046	-1305.40417	-668.09766	1044.46875	-1276.79932	-707.72357	914.30853	-1321.49597	-671.19769	914.66705	-1308.74817	-695.80756	844.37274	-861.74622	-759.92932	988.16876	-1112.26599	-783.04633	985.83429	-960.03625	-559.40192	1033.08484	-1075.92773	-564.30859	1033.60742	-832.49426	-689.24292	669.53668	-874.37598	-653.01563	470.56870	-885.09503	-578.73431	289.22180	-932.47754	-559.60004	69.03523	-986.92163	-524.79565	42.59128	-909.02454	-712.71759	30.28878	-1206.94409	-784.64685	686.88806	-1188.59387	-847.35596	493.57956	-1199.60620	-766.14606	325.76544	-1174.93530	-703.37482	142.52081	-1117.56702	-663.55359	93.77368	-1198.84436	-832.78766	50.06547	-1001.54498	-649.93121	1808.35352	-3357.08374	2846.12378	1034.35400			 
138	1.370	-909.62036	-762.62061	1738.75256	-1052.70154	-769.12671	1727.32593	-912.30707	-633.17676	1662.27820	-1054.49573	-627.53577	1649.00806	-990.17383	-586.06604	1520.46191	-1003.59021	-549.41180	1242.70740	-975.52789	-727.46582	1460.44055	-985.19562	-790.52252	1291.98499	-1058.18469	-538.35889	1344.29053	-809.23096	-650.08521	1495.96777	-721.49805	-667.68073	1300.03015	-701.99915	-691.97406	1159.36206	-694.72791	-753.61011	1040.03796	-728.12219	-857.17987	952.29230	-699.11517	-812.78625	932.95764	-693.21503	-857.09436	885.09747	-1172.90808	-668.70300	1493.33972	-1264.79761	-637.09851	1307.36096	-1286.80579	-647.53503	1160.69568	-1303.54883	-673.63281	1042.05347	-1275.71167	-708.13770	909.91913	-1320.94885	-672.23840	912.39331	-1308.27917	-693.47583	840.39862	-858.35327	-769.66150	986.05042	-1109.12244	-796.28503	984.34033	-959.96320	-570.92963	1031.90222	-1075.61768	-577.03961	1032.51855	-831.43536	-696.04694	668.26105	-873.67889	-657.12531	469.78741	-885.20221	-580.64233	289.37296	-932.76740	-559.83948	69.18217	-987.33069	-524.96027	43.05521	-908.82489	-712.72650	30.26429	-1204.71692	-800.85138	687.23077	-1185.25745	-864.97113	492.91379	-1197.84509	-794.26257	319.70328	-1174.85986	-743.28870	132.71866	-1117.46619	-705.76013	81.71164	-1195.51538	-879.15082	48.34692	-1000.41205	-663.39020	1806.91089	-3357.14014	2846.13647	1034.38721			 
139	1.380	-907.97180	-775.33075	1736.96753	-1051.28027	-782.28088	1725.47766	-910.84204	-645.67426	1660.77820	-1053.17236	-640.58575	1647.41589	-988.84625	-598.94794	1518.96924	-1002.53979	-561.87695	1241.22644	-973.74298	-740.19336	1458.72400	-982.75201	-802.90973	1289.98816	-1056.73499	-551.19727	1342.80664	-807.79999	-662.68512	1494.79675	-719.55762	-682.49799	1299.54309	-699.25146	-709.15082	1159.29297	-693.51465	-776.39697	1042.62854	-728.34052	-884.18445	960.75012	-699.56372	-840.68896	938.66486	-694.30292	-887.01727	892.95618	-1171.55383	-682.75055	1491.33057	-1262.31360	-648.77002	1305.24060	-1284.13354	-656.83264	1158.76697	-1301.74902	-679.12323	1039.66211	-1275.03345	-708.91278	906.26672	-1320.61938	-673.57892	910.43219	-1308.43469	-691.78180	837.42133	-855.11267	-780.46436	984.01599	-1106.33264	-809.95471	982.69617	-959.82916	-582.54572	1030.31702	-1075.26599	-589.95398	1030.88696	-830.26208	-702.99628	667.00226	-872.96130	-661.42224	468.89072	-885.33508	-582.47083	289.57718	-932.91840	-559.80963	69.35776	-987.63611	-525.76038	43.25939	-908.59924	-712.88574	30.18696	-1202.56189	-816.78644	687.07526	-1182.09656	-881.81213	491.61304	-1196.95471	-822.11481	313.90561	-1175.34851	-783.97693	123.79284	-1118.52612	-748.72101	70.53233	-1191.98059	-925.61169	47.76393	-999.16235	-676.58246	1805.25623	-3357.18579	2846.04346	1034.33276			 
140	1.390	-907.03522	-788.75098	1735.04980	-1049.75244	-795.48608	1723.36584	-909.56268	-658.96820	1658.85718	-1051.95654	-653.60217	1645.47168	-987.45050	-611.86273	1516.98206	-1001.66522	-574.36560	1239.43237	-972.08868	-753.11658	1456.71460	-980.44421	-815.50885	1287.74573	-1054.85046	-564.42163	1340.66248	-806.41766	-675.50232	1493.26758	-717.41931	-696.76514	1299.01721	-696.55994	-725.85437	1158.87244	-692.33173	-798.68195	1045.29504	-728.67944	-909.77509	969.28485	-700.00751	-868.38342	944.78711	-695.65070	-917.22412	901.11548	-1169.95105	-696.35419	1488.88843	-1260.50964	-660.21033	1303.09839	-1281.61499	-666.13263	1156.80310	-1300.23669	-684.95721	1037.39697	-1274.48096	-710.19617	902.94092	-1320.39807	-675.20557	908.53809	-1308.74634	-690.55432	834.75757	-852.31085	-791.17169	981.70917	-1103.92078	-823.78833	980.69446	-959.81665	-594.30450	1028.34985	-1074.94873	-603.05621	1028.82410	-829.08075	-709.72882	665.53387	-872.26221	-665.98657	467.87463	-885.42786	-584.52765	289.69937	-933.22772	-560.43396	69.55918	-988.03381	-525.47107	43.72958	-908.10431	-713.01599	30.21786	-1200.43347	-832.51489	686.33093	-1179.11658	-897.97791	489.90594	-1196.48303	-849.97968	308.50839	-1176.38513	-824.93304	115.67215	-1121.01660	-791.79065	60.65953	-1188.62720	-971.87219	48.67761	-997.78589	-689.53577	1803.22131	-3360.27393	2845.34863	1034.28467			 
